<svg width="31" height="30" viewBox="0 0 31 30" fill="none" xmlns="http://www.w3.org/2000/svg">
<g clip-path="url(#clip0_262_23923)">
<path d="M22.7662 14.949C25.0337 12.8648 33.3309 3.05583 27.1154 0.36899C20.8996 -2.31785 19.4391 10.4464 19.4744 13.526L22.7662 14.949Z" fill="#FFAACB"/>
<path d="M7.51899 14.949C5.25169 12.8648 -3.04574 3.05583 3.16978 0.36899C9.38552 -2.31785 10.846 10.4464 10.8108 13.526L7.51899 14.949Z" fill="#FFAACB"/>
<path d="M6.04932 13.4136C6.63754 14.0828 7.15573 14.6152 7.51897 14.9491L10.8107 13.5259C10.8183 12.8622 10.7563 11.7482 10.5924 10.436C9.14471 10.976 7.81308 11.7764 6.66844 12.8111C6.45306 13.0059 6.24661 13.2069 6.04932 13.4136Z" fill="#FF82B3"/>
<path d="M23.6167 12.8111C22.472 11.7764 21.1404 10.976 19.6929 10.436C19.5288 11.7482 19.4668 12.8622 19.4744 13.5259L22.7661 14.9491C23.1294 14.6152 23.6476 14.0828 24.2358 13.4136C24.0385 13.2069 23.832 13.0059 23.6167 12.8111Z" fill="#FF82B3"/>
<path d="M20.9875 14.1798C21.0526 12.9478 21.2283 11.3053 21.5838 9.69995C22.4203 5.92179 23.6238 4.94309 23.9729 4.73321C24.7334 4.27567 25.9014 4.78105 26.0893 5.64805C26.1754 6.04608 26.2871 7.59309 24.1079 10.791C23.1821 12.1499 22.1061 13.4033 21.2531 14.2947L20.9875 14.1798Z" fill="#EBEBEB"/>
<path d="M9.29753 14.1798C9.23253 12.9478 9.05675 11.3053 8.70129 9.69995C7.86473 5.92179 6.66127 4.94309 6.31223 4.73321C5.55165 4.27567 4.38367 4.78105 4.19598 5.64805C4.1097 6.04608 3.998 7.59309 6.17719 10.791C7.10301 12.1499 8.17922 13.4033 9.03203 14.2947L9.29753 14.1798Z" fill="#EBEBEB"/>
<path d="M9.03212 14.295L9.29762 14.1801C9.25253 13.3255 9.15388 12.2728 8.97902 11.1724C8.38461 11.4971 7.81813 11.8707 7.28552 12.2907C7.89435 13.0563 8.50569 13.7448 9.03212 14.295Z" fill="#D5D4DA"/>
<path d="M21.3062 11.1724C21.1313 12.2728 21.0326 13.3252 20.9875 14.1801L21.2531 14.295C21.7795 13.7445 22.3908 13.0563 22.9994 12.2907C22.4668 11.8707 21.9006 11.4971 21.3062 11.1724Z" fill="#D5D4DA"/>
<path d="M25.4093 20.7176C25.4093 15.5914 20.8127 11.4355 15.1426 11.4355C9.47249 11.4355 4.87585 15.5914 4.87585 20.7176C4.87585 25.8441 9.47249 29.9999 15.1426 29.9999C20.8127 29.9999 25.4093 25.8441 25.4093 20.7176Z" fill="#FFAACB"/>
<path d="M16.6801 20.3286C17.668 20.8717 18.337 21.9223 18.337 23.129C18.337 24.8932 16.9067 26.3235 15.1425 26.3235C13.3783 26.3235 11.948 24.8932 11.948 23.129C11.948 21.9223 12.617 20.8717 13.6049 20.3286H16.6801Z" fill="#EBEBEB"/>
<path d="M19.9388 20.8511C19.6889 20.8511 19.4861 20.6485 19.4861 20.3984V19.4659C19.4861 19.2157 19.6889 19.0132 19.9388 19.0132C20.1888 19.0132 20.3915 19.2157 20.3915 19.4659V20.3984C20.3915 20.6485 20.1888 20.8511 19.9388 20.8511Z" fill="#4B5562"/>
<path d="M10.3463 20.8511C10.0963 20.8511 9.89355 20.6485 9.89355 20.3984V19.4659C9.89355 19.2157 10.0963 19.0132 10.3463 19.0132C10.5962 19.0132 10.799 19.2157 10.799 19.4659V20.3984C10.799 20.6485 10.5962 20.8511 10.3463 20.8511Z" fill="#4B5562"/>
<path d="M10.3786 22.2219H9.10849C8.85855 22.2219 8.65576 22.0193 8.65576 21.7691C8.65576 21.5192 8.85855 21.3164 9.10849 21.3164H10.3786C10.6287 21.3164 10.8313 21.5192 10.8313 21.7691C10.8313 22.0193 10.6287 22.2219 10.3786 22.2219Z" fill="#FF82B3"/>
<path d="M21.1765 22.2219H19.9065C19.6563 22.2219 19.4537 22.0193 19.4537 21.7691C19.4537 21.5192 19.6563 21.3164 19.9065 21.3164H21.1765C21.4267 21.3164 21.6293 21.5192 21.6293 21.7691C21.6293 22.0193 21.4267 22.2219 21.1765 22.2219Z" fill="#FF82B3"/>
<path d="M16.4485 22.3746C15.9779 22.3746 15.5952 21.9919 15.5952 21.5216C15.5952 21.2714 15.3925 21.0688 15.1425 21.0688C14.8926 21.0688 14.6898 21.2714 14.6898 21.5216C14.6898 21.9919 14.3071 22.3746 13.8365 22.3746C13.5866 22.3746 13.3838 22.5774 13.3838 22.8273C13.3838 23.0775 13.5866 23.2801 13.8365 23.2801C14.3542 23.2801 14.8205 23.0551 15.1425 22.698C15.4646 23.0551 15.9308 23.2801 16.4485 23.2801C16.6985 23.2801 16.9012 23.0775 16.9012 22.8273C16.9012 22.5774 16.6985 22.3746 16.4485 22.3746Z" fill="#4B5562"/>
<path d="M16.6801 20.3287C16.5048 21.0147 15.8827 21.5216 15.1425 21.5216C14.4023 21.5216 13.7804 21.0147 13.6049 20.3287C14.0606 20.0774 14.5849 19.9346 15.1425 19.9346C15.7 19.9346 16.2244 20.0774 16.6801 20.3287Z" fill="#FF82B3"/>
<path d="M8.94991 14.7806C8.94991 14.7806 7.47591 19.7349 5.1832 16.0325C2.89049 12.3299 7.98266 13.2184 7.98266 13.2184L8.94991 14.7806Z" fill="#34B5E1"/>
<path d="M10.278 13.9583C10.278 13.9583 15.3704 14.8468 13.0777 11.1442C10.785 7.44179 9.31079 12.3962 9.31079 12.3962L10.278 13.9583Z" fill="#34B5E1"/>
<path d="M8.54712 12.5634L8.47319 12.6092C7.91998 12.9518 7.74924 13.6781 8.09188 14.2313C8.43451 14.7847 9.16075 14.9555 9.71396 14.6128L9.78789 14.5671C10.3411 14.2244 10.5118 13.4982 10.1692 12.945C9.82657 12.3915 9.10033 12.2208 8.54712 12.5634Z" fill="#5BD6FD"/>
</g>
<defs>
<clipPath id="clip0_262_23923">
<rect width="30" height="30" fill="white" transform="translate(0.083252)"/>
</clipPath>
</defs>
</svg>
