<svg width="47" height="32" viewBox="0 0 47 32" fill="none" xmlns="http://www.w3.org/2000/svg">
<rect x="1.00001" y="0.666667" width="45.3333" height="30.6667" rx="4.66667" fill="white" stroke="#D9D9D9" stroke-width="1.33333"/>
<path fill-rule="evenodd" clip-rule="evenodd" d="M22.3735 21.0114V16.9835H24.4524C25.3043 16.9835 26.0233 16.6981 26.6094 16.1351L26.7501 15.9924C27.8208 14.8268 27.7505 13.0111 26.6094 11.9327C26.0389 11.3618 25.2574 11.0526 24.4524 11.0685H21.1152V21.0114H22.3735ZM22.3736 15.762V12.2891H24.4841C24.9375 12.2891 25.3674 12.4635 25.6879 12.7807C26.3679 13.4467 26.3836 14.5568 25.727 15.2466C25.4065 15.5875 24.9531 15.7778 24.4841 15.762H22.3736ZM32.6195 14.7396C32.0803 14.2401 31.3456 13.9863 30.4156 13.9863C29.2198 13.9863 28.3211 14.4304 27.7271 15.3105L28.8369 16.0162C29.2433 15.4136 29.7982 15.1122 30.5016 15.1122C30.947 15.1122 31.3769 15.2788 31.713 15.5801C32.0412 15.8655 32.2288 16.2778 32.2288 16.7139V17.0073C31.7442 16.7377 31.1346 16.595 30.3843 16.595C29.509 16.595 28.8056 16.8011 28.282 17.2214C27.7584 17.6416 27.4926 18.1966 27.4926 18.9023C27.477 19.5446 27.7505 20.1551 28.2351 20.5674C28.7275 21.0114 29.3527 21.2334 30.0873 21.2334C30.9549 21.2334 31.6426 20.8449 32.1662 20.0679H32.221V21.0114H33.4245V16.817C33.4245 15.9369 33.1588 15.2391 32.6195 14.7396ZM29.2044 19.7588C28.9465 19.5685 28.7902 19.2593 28.7902 18.9263C28.7902 18.5536 28.9621 18.2444 29.2982 17.9986C29.6422 17.7528 30.0721 17.6259 30.5802 17.6259C31.2837 17.618 31.8308 17.7766 32.2217 18.0937C32.2217 18.6329 32.0106 19.1007 31.5963 19.4972C31.2211 19.8778 30.7131 20.0919 30.1815 20.0919C29.8298 20.0998 29.4858 19.9809 29.2044 19.7588ZM36.1287 24.0007L40.3334 14.2083H38.9657L37.0196 19.0926H36.9962L35.0032 14.2083H33.6355L36.3944 20.5753L34.8313 24.0007H36.1287Z" fill="#3C4043"/>
<path d="M18.0295 16.1108C18.0295 15.7222 17.9982 15.3337 17.9357 14.9531H12.629V17.1495H15.6692C15.5442 17.8551 15.1378 18.4895 14.5438 18.8859V20.3131H16.357C17.4199 19.322 18.0295 17.8551 18.0295 16.1108Z" fill="#4285F4"/>
<path d="M12.6293 21.6928C14.1454 21.6928 15.4272 21.1854 16.3572 20.3132L14.544 18.8859C14.036 19.2348 13.3873 19.433 12.6293 19.433C11.16 19.433 9.9173 18.4261 9.47183 17.0781H7.60394V18.5529C8.55742 20.4797 10.5035 21.6928 12.6293 21.6928Z" fill="#34A853"/>
<path d="M9.47208 17.0786C9.23758 16.3729 9.23758 15.6038 9.47208 14.8902V13.4233H7.6039C6.79878 15.0329 6.79878 16.9359 7.6039 18.5455L9.47208 17.0786Z" fill="#FBBC04"/>
<path d="M12.6293 12.535C13.4342 12.5192 14.208 12.8284 14.7863 13.3914L16.3963 11.758C15.3725 10.7906 14.0282 10.2594 12.6293 10.2752C10.5035 10.2752 8.55742 11.4963 7.60394 13.4231L9.47183 14.8979C9.9173 13.542 11.16 12.535 12.6293 12.535Z" fill="#EA4335"/>
</svg>
