<svg width="108" height="37" viewBox="0 0 108 37" fill="none" xmlns="http://www.w3.org/2000/svg">
<path d="M42.5425 13.755C42.6934 13.2018 42.9616 12.7994 43.3472 12.548C43.7496 12.2797 44.3279 12.1456 45.0823 12.1456C45.9038 12.1456 46.5157 12.33 46.9181 12.6988C47.3204 13.0677 47.5216 13.5706 47.5216 14.2077C47.5216 14.6435 47.421 15.0124 47.2198 15.3141C47.0187 15.6159 46.7588 15.8757 46.4403 16.0937C46.1218 16.2949 45.7613 16.4709 45.359 16.6218C44.9734 16.7727 44.5794 16.9235 44.1771 17.0744C43.7747 17.2085 43.3891 17.3594 43.0203 17.5271C42.6515 17.6947 42.3413 17.9043 42.0898 18.1557C41.8551 18.3904 41.83 18.7341 42.0144 19.1868C42.2156 19.6394 42.5257 20.1507 42.9448 20.7207C43.3807 21.2907 43.8837 21.9027 44.4537 22.5565C45.0237 23.2103 45.5601 23.8725 46.0631 24.5431C46.5828 25.1969 47.0187 25.8424 47.3707 26.4794C47.7228 27.0997 47.8988 27.6697 47.8988 28.1894C47.8988 29.3965 47.3791 30 46.3397 30H43.2969C42.7437 30 42.3413 29.8491 42.0898 29.5474C41.8551 29.2456 41.7378 28.7929 41.7378 28.1894C41.7378 27.5021 41.6121 26.7476 41.3606 25.9262C41.1259 25.0879 40.8241 24.3084 40.4553 23.5875C40.0865 22.8666 39.6757 22.2715 39.2231 21.8021C38.7872 21.3159 38.3681 21.0728 37.9657 21.0728C37.7478 21.0728 37.5801 21.1482 37.4628 21.2991C37.3454 21.45 37.2532 21.6344 37.1862 21.8524C37.1191 22.0703 37.0772 22.2882 37.0604 22.5062C37.0437 22.7241 37.0353 22.9002 37.0353 23.0343C37.0353 23.6546 37.0856 24.1994 37.1862 24.6688C37.3035 25.1215 37.4209 25.5406 37.5382 25.9262C37.6723 26.295 37.7897 26.6554 37.8903 27.0075C37.9909 27.3596 38.0412 27.7535 38.0412 28.1894C38.0412 28.7929 37.9154 29.2456 37.664 29.5474C37.4293 29.8491 37.0353 30 36.4821 30H33.4393C32.3999 30 31.8801 29.3965 31.8801 28.1894C31.8801 27.6194 31.9388 27.0578 32.0562 26.5046C32.1903 25.9513 32.3328 25.3897 32.4837 24.8197C32.6346 24.2497 32.7687 23.6713 32.886 23.0846C33.0201 22.481 33.0872 21.8524 33.0872 21.1985C33.0872 20.5447 33.0201 19.9244 32.886 19.3377C32.7687 18.7341 32.6346 18.1474 32.4837 17.5774C32.3328 17.0074 32.1903 16.4457 32.0562 15.8925C31.9388 15.3393 31.8801 14.786 31.8801 14.2328C31.8801 13.009 32.3999 12.3971 33.4393 12.3971H36.4821C37.0353 12.3971 37.4293 12.548 37.664 12.8497C37.9154 13.1515 38.0412 13.6125 38.0412 14.2328C38.0412 14.786 37.9825 15.2722 37.8651 15.6913C37.7646 16.0937 37.6388 16.4793 37.4879 16.8481C37.3538 17.2002 37.2281 17.5606 37.1107 17.9294C37.0101 18.2815 36.9598 18.6922 36.9598 19.1616C36.9598 19.5975 37.0856 19.8154 37.3371 19.8154C37.4712 19.8154 37.6221 19.7735 37.7897 19.6897C37.9573 19.5891 38.1418 19.4718 38.3429 19.3377C38.695 19.0862 39.0806 18.776 39.4997 18.4072C39.9188 18.0216 40.3212 17.5941 40.7068 17.1247C41.1091 16.6385 41.4696 16.1105 41.7881 15.5405C42.1234 14.9705 42.3748 14.3753 42.5425 13.755ZM50.8669 23.7132C50.8669 23.2606 50.7999 22.8582 50.6658 22.5062C50.5484 22.1541 50.4143 21.8272 50.2634 21.5254C50.1125 21.2069 49.97 20.8884 49.8359 20.5699C49.7186 20.2513 49.6599 19.8909 49.6599 19.4885C49.6599 19.0862 49.8192 18.7593 50.1377 18.5078C50.473 18.2396 50.8753 18.03 51.3447 17.8791C51.8142 17.7115 52.3171 17.5941 52.8536 17.5271C53.39 17.46 53.8594 17.4265 54.2618 17.4265C54.815 17.4265 55.2174 17.5438 55.4689 17.7785C55.7203 18.0132 55.8461 18.4156 55.8461 18.9856C55.8461 19.3879 55.779 19.7735 55.6449 20.1424C55.5275 20.5112 55.3934 20.8884 55.2425 21.274C55.0917 21.6428 54.9492 22.0284 54.815 22.4307C54.6977 22.8331 54.639 23.2606 54.639 23.7132C54.639 24.1659 54.6977 24.5934 54.815 24.9957C54.9492 25.3981 55.0917 25.7921 55.2425 26.1776C55.3934 26.5465 55.5275 26.9153 55.6449 27.2841C55.779 27.6529 55.8461 28.0385 55.8461 28.4409C55.8461 28.8768 55.7203 29.2456 55.4689 29.5474C55.2174 29.8491 54.815 30 54.2618 30H51.2442C50.6909 30 50.2886 29.8491 50.0371 29.5474C49.7856 29.2456 49.6599 28.8768 49.6599 28.4409C49.6599 28.0385 49.7186 27.6529 49.8359 27.2841C49.97 26.9153 50.1125 26.5465 50.2634 26.1776C50.4143 25.7921 50.5484 25.3981 50.6658 24.9957C50.7999 24.5934 50.8669 24.1659 50.8669 23.7132ZM50.1377 14.3837C50.1377 13.7131 50.3724 13.1766 50.8418 12.7743C51.3112 12.3552 51.9399 12.1456 52.7278 12.1456C53.5325 12.1456 54.1696 12.3552 54.639 12.7743C55.1252 13.1766 55.3683 13.7131 55.3683 14.3837C55.3683 15.0543 55.1252 15.5907 54.639 15.9931C54.1696 16.3954 53.5325 16.5966 52.7278 16.5966C51.9399 16.5966 51.3112 16.3954 50.8418 15.9931C50.3724 15.5907 50.1377 15.0543 50.1377 14.3837ZM72.6563 12.8246C72.6563 13.4281 72.5808 14.04 72.4299 14.6603C72.2958 15.2806 72.1366 15.9177 71.9522 16.5715C71.7845 17.2085 71.6252 17.8624 71.4744 18.5329C71.3235 19.2035 71.248 19.8825 71.248 20.5699C71.248 21.2572 71.3067 21.9194 71.4241 22.5565C71.5582 23.1935 71.7007 23.8222 71.8516 24.4425C72.0024 25.046 72.1366 25.6496 72.2539 26.2531C72.388 26.8566 72.4551 27.4601 72.4551 28.0637C72.4551 29.3546 71.9354 30 70.896 30H68.8339C68.4819 30 68.1969 29.9832 67.9789 29.9497C67.7777 29.9162 67.6101 29.8826 67.476 29.8491C67.3586 29.7988 67.2497 29.7569 67.1491 29.7234C67.0652 29.6899 66.9563 29.6731 66.8222 29.6731C66.7216 29.6731 66.6042 29.7066 66.4701 29.7737C66.336 29.824 66.1683 29.891 65.9672 29.9749C65.7827 30.0419 65.5397 30.1006 65.2379 30.1509C64.9529 30.2179 64.5925 30.2515 64.1566 30.2515C63.201 30.2515 62.3208 30.1509 61.5161 29.9497C60.7114 29.7485 60.0157 29.3965 59.4289 28.8935C58.8422 28.3906 58.3811 27.72 58.0458 26.8818C57.7105 26.0435 57.5429 24.9874 57.5429 23.7132C57.5429 22.4391 57.6938 21.3829 57.9955 20.5447C58.3141 19.7065 58.75 19.0359 59.3032 18.5329C59.8732 18.03 60.5354 17.6779 61.2898 17.4768C62.061 17.2756 62.8992 17.175 63.8045 17.175C64.4583 17.175 65.0116 17.2337 65.4642 17.351C65.9169 17.4516 66.2773 17.5606 66.5455 17.6779C66.8305 17.7953 67.0317 17.8791 67.1491 17.9294C67.2664 17.9797 67.3251 17.9546 67.3251 17.854C67.3251 17.6025 67.2832 17.3091 67.1994 16.9738C67.1155 16.6385 67.0149 16.2865 66.8976 15.9177C66.797 15.5321 66.7048 15.1465 66.621 14.7609C66.5372 14.3585 66.4952 13.9646 66.4952 13.579C66.4952 13.076 66.6545 12.6569 66.973 12.3216C67.3083 11.9863 67.7107 11.7097 68.1801 11.4918C68.6495 11.2738 69.1441 11.123 69.6638 11.0391C70.2002 10.9385 70.678 10.8882 71.0972 10.8882C71.6504 10.8882 72.0444 11.0475 72.2791 11.366C72.5305 11.6846 72.6563 12.1707 72.6563 12.8246ZM67.3754 22.8079C67.3754 22.2044 67.3251 21.6428 67.2245 21.1231C67.1407 20.6034 66.9898 20.1507 66.7719 19.7652C66.5707 19.3796 66.2941 19.0778 65.942 18.8599C65.6067 18.6252 65.1876 18.5078 64.6847 18.5078C63.9135 18.5078 63.3686 18.9688 63.0501 19.8909C62.7316 20.7962 62.5723 22.0703 62.5723 23.7132C62.5723 25.3562 62.7819 26.6471 63.201 27.5859C63.6201 28.5247 64.2488 28.9941 65.087 28.9941C65.4391 28.9941 65.7576 28.8349 66.0426 28.5163C66.3276 28.1978 66.5707 27.7619 66.7719 27.2087C66.973 26.6554 67.1239 26.0016 67.2245 25.2472C67.3251 24.4928 67.3754 23.6797 67.3754 22.8079ZM75.6456 23.7132C75.6456 23.2606 75.5786 22.8582 75.4444 22.5062C75.3271 22.1541 75.193 21.8272 75.0421 21.5254C74.8912 21.2069 74.7487 20.8884 74.6146 20.5699C74.4972 20.2513 74.4386 19.8909 74.4386 19.4885C74.4386 19.0862 74.5978 18.7593 74.9164 18.5078C75.2517 18.2396 75.654 18.03 76.1234 17.8791C76.5928 17.7115 77.0958 17.5941 77.6322 17.5271C78.1687 17.46 78.6381 17.4265 79.0405 17.4265C79.5937 17.4265 79.9961 17.5438 80.2475 17.7785C80.499 18.0132 80.6247 18.4156 80.6247 18.9856C80.6247 19.3879 80.5577 19.7735 80.4236 20.1424C80.3062 20.5112 80.1721 20.8884 80.0212 21.274C79.8703 21.6428 79.7278 22.0284 79.5937 22.4307C79.4764 22.8331 79.4177 23.2606 79.4177 23.7132C79.4177 24.1659 79.4764 24.5934 79.5937 24.9957C79.7278 25.3981 79.8703 25.7921 80.0212 26.1776C80.1721 26.5465 80.3062 26.9153 80.4236 27.2841C80.5577 27.6529 80.6247 28.0385 80.6247 28.4409C80.6247 28.8768 80.499 29.2456 80.2475 29.5474C79.9961 29.8491 79.5937 30 79.0405 30H76.0228C75.4696 30 75.0672 29.8491 74.8158 29.5474C74.5643 29.2456 74.4386 28.8768 74.4386 28.4409C74.4386 28.0385 74.4972 27.6529 74.6146 27.2841C74.7487 26.9153 74.8912 26.5465 75.0421 26.1776C75.193 25.7921 75.3271 25.3981 75.4444 24.9957C75.5786 24.5934 75.6456 24.1659 75.6456 23.7132ZM74.9164 14.3837C74.9164 13.7131 75.1511 13.1766 75.6205 12.7743C76.0899 12.3552 76.7186 12.1456 77.5065 12.1456C78.3112 12.1456 78.9483 12.3552 79.4177 12.7743C79.9039 13.1766 80.1469 13.7131 80.1469 14.3837C80.1469 15.0543 79.9039 15.5907 79.4177 15.9931C78.9483 16.3954 78.3112 16.5966 77.5065 16.5966C76.7186 16.5966 76.0899 16.3954 75.6205 15.9931C75.1511 15.5907 74.9164 15.0543 74.9164 14.3837ZM83.4825 17.4265C83.7004 17.4265 83.8094 17.3678 83.8094 17.2504C83.8094 17.1163 83.7675 16.9403 83.6836 16.7224C83.5998 16.4877 83.4992 16.2027 83.3819 15.8674C83.2813 15.5153 83.231 15.1297 83.231 14.7106C83.231 13.9897 83.3651 13.3862 83.6333 12.9C83.9183 12.4138 84.2788 12.0199 84.7147 11.7181C85.1673 11.4163 85.6619 11.2068 86.1983 11.0894C86.7516 10.9553 87.2964 10.8882 87.8329 10.8882C88.7214 10.8882 89.4842 10.9888 90.1213 11.19C90.7751 11.3744 91.3116 11.6343 91.7307 11.9696C92.1666 12.3049 92.4851 12.7072 92.6863 13.1766C92.8875 13.646 92.988 14.149 92.988 14.6855C92.988 15.1213 92.921 15.4734 92.7869 15.7416C92.6695 16.0099 92.5103 16.2194 92.3091 16.3703C92.1079 16.5212 91.8816 16.6218 91.6301 16.6721C91.3954 16.7224 91.1523 16.7475 90.9008 16.7475C90.2135 16.7475 89.677 16.5715 89.2914 16.2194C88.9226 15.8674 88.7382 15.2638 88.7382 14.4088C88.7382 14.1574 88.7466 13.9059 88.7633 13.6544C88.7801 13.3862 88.7633 13.1431 88.713 12.9252C88.6795 12.6905 88.5957 12.506 88.4616 12.3719C88.3442 12.221 88.143 12.1456 87.858 12.1456C87.6569 12.1456 87.4976 12.2797 87.3803 12.548C87.2797 12.7994 87.221 13.1263 87.2042 13.5287C87.2042 13.9143 87.2378 14.3334 87.3048 14.786C87.3719 15.2387 87.4725 15.6662 87.6066 16.0685C87.7407 16.4541 87.9 16.781 88.0844 17.0493C88.2688 17.3007 88.4783 17.4265 88.713 17.4265H89.7189C89.9704 17.4265 90.1548 17.4935 90.2722 17.6277C90.4063 17.7618 90.4733 17.9043 90.4733 18.0552C90.4733 18.206 90.4063 18.3485 90.2722 18.4827C90.1548 18.6168 89.9704 18.6838 89.7189 18.6838H89.1154C88.8807 18.6838 88.6963 18.7509 88.5622 18.885C88.4448 19.0191 88.361 19.1868 88.3107 19.3879C88.2604 19.5724 88.2269 19.7735 88.2101 19.9915C88.2101 20.2094 88.2101 20.4022 88.2101 20.5699C88.2101 21.2572 88.2688 21.9194 88.3861 22.5565C88.5203 23.1935 88.6544 23.8222 88.7885 24.4425C88.9394 25.046 89.0735 25.6496 89.1908 26.2531C89.325 26.8566 89.392 27.4601 89.392 28.0637C89.392 28.7175 89.2663 29.2037 89.0148 29.5222C88.7801 29.8407 88.3861 30 87.8329 30H84.7901C83.7507 30 83.231 29.3546 83.231 28.0637C83.231 27.4601 83.2897 26.8566 83.407 26.2531C83.5411 25.6496 83.6836 25.046 83.8345 24.4425C83.9854 23.8222 84.1195 23.1935 84.2369 22.5565C84.371 21.9194 84.4381 21.2572 84.4381 20.5699C84.4381 20.0334 84.3961 19.5891 84.3123 19.2371C84.2285 18.8682 83.9519 18.6838 83.4825 18.6838H82.9292C82.6778 18.6838 82.485 18.6168 82.3508 18.4827C82.2335 18.3485 82.1748 18.206 82.1748 18.0552C82.1748 17.9043 82.2335 17.7618 82.3508 17.6277C82.485 17.4935 82.6778 17.4265 82.9292 17.4265H83.4825ZM100.882 30C100.831 30.4359 100.781 30.9053 100.731 31.4082C100.68 31.9279 100.588 32.4309 100.454 32.9171C100.337 33.42 100.169 33.8978 99.9512 34.3504C99.7333 34.8198 99.4231 35.2306 99.0208 35.5826C98.6184 35.9515 98.1071 36.2365 97.4868 36.4376C96.8833 36.6556 96.1373 36.7646 95.2487 36.7646C94.7123 36.7646 94.2764 36.6891 93.9411 36.5382C93.6058 36.3873 93.3375 36.1862 93.1364 35.9347C92.952 35.6832 92.8178 35.3982 92.734 35.0797C92.667 34.7779 92.6334 34.4762 92.6334 34.1744C92.6334 33.9565 92.667 33.7134 92.734 33.4451C92.8011 33.1769 92.9184 32.9338 93.0861 32.7159C93.2705 32.4979 93.5136 32.3135 93.8153 32.1626C94.1339 32.0118 94.5278 31.9363 94.9973 31.9363C95.5673 31.9363 96.1205 31.9363 96.657 31.9363C97.2102 31.9363 97.6964 31.8944 98.1155 31.8106C98.5514 31.7268 98.9034 31.5843 99.1717 31.3831C99.4399 31.1819 99.574 30.8801 99.574 30.4778C99.574 30.2766 99.5153 30.1509 99.398 30.1006C99.2974 30.0671 99.1549 30.0503 98.9705 30.0503C98.1658 30.0503 97.5371 29.8324 97.0845 29.3965C96.6318 28.9438 96.2714 28.399 96.0031 27.7619C95.7349 27.1249 95.5086 26.4626 95.3242 25.7753C95.1565 25.0712 94.947 24.4593 94.6955 23.9396C94.4775 23.4869 94.2428 23.0427 93.9914 22.6068C93.7399 22.1541 93.5052 21.7015 93.2873 21.2488C93.0693 20.7962 92.8849 20.3519 92.734 19.916C92.5831 19.4634 92.5077 19.0191 92.5077 18.5832C92.5077 17.8121 92.8765 17.4265 93.6142 17.4265H96.6821C97.2521 17.4265 97.6377 17.5354 97.8389 17.7534C98.04 17.9713 98.1406 18.2982 98.1406 18.7341C98.1406 18.8682 98.1239 19.0862 98.0903 19.3879C98.0736 19.6729 98.0652 20.0082 98.0652 20.3938C98.0652 20.7794 98.082 21.1985 98.1155 21.6512C98.149 22.1038 98.2245 22.5481 98.3418 22.984C98.4759 23.5204 98.652 24.015 98.8699 24.4677C99.0878 24.9203 99.3058 25.3143 99.5237 25.6496C99.7417 25.9849 99.9428 26.2447 100.127 26.4291C100.328 26.6135 100.471 26.7057 100.555 26.7057C100.639 26.7057 100.781 26.5632 100.982 26.2782C101.183 25.9932 101.393 25.6496 101.611 25.2472C101.829 24.8449 102.038 24.4257 102.24 23.9899C102.441 23.554 102.592 23.1768 102.692 22.8582C102.877 22.2882 102.977 21.7769 102.994 21.3243C103.011 20.8716 102.986 20.4777 102.919 20.1424C102.868 19.7903 102.801 19.4969 102.717 19.2622C102.65 19.0275 102.617 18.8515 102.617 18.7341C102.617 18.2982 102.717 17.9713 102.919 17.7534C103.12 17.5354 103.505 17.4265 104.075 17.4265H105.081C105.819 17.4265 106.188 17.8121 106.188 18.5832C106.188 19.0191 106.095 19.4634 105.911 19.916C105.727 20.3519 105.5 20.7962 105.232 21.2488C104.981 21.7015 104.704 22.1541 104.402 22.6068C104.117 23.0427 103.866 23.4869 103.648 23.9396C103.38 24.4928 103.095 25.0377 102.793 25.5741C102.491 26.1106 102.206 26.6303 101.938 27.1332C101.686 27.6362 101.46 28.1307 101.259 28.6169C101.058 29.0863 100.932 29.5474 100.882 30Z" fill="#10919E"/>
<g clip-path="url(#clip0_7_37)">
<path d="M22.6829 14.9489C24.9504 12.8647 33.2476 3.05577 27.0321 0.368929C20.8164 -2.31792 19.3559 10.4464 19.3911 13.526L22.6829 14.9489Z" fill="#FFAACB"/>
<path d="M7.43574 14.9489C5.16844 12.8647 -3.12899 3.05577 3.08653 0.368929C9.30227 -2.31792 10.7628 10.4464 10.7275 13.526L7.43574 14.9489Z" fill="#FFAACB"/>
<path d="M5.96606 13.4134C6.55429 14.0826 7.07248 14.615 7.43571 14.9489L10.7275 13.5258C10.735 12.862 10.673 11.748 10.5091 10.4359C9.06146 10.9758 7.72983 11.7762 6.58519 12.811C6.36981 13.0057 6.16336 13.2067 5.96606 13.4134Z" fill="#FF82B3"/>
<path d="M23.5334 12.811C22.3888 11.7762 21.0571 10.9758 19.6097 10.4359C19.4456 11.748 19.3836 12.862 19.3911 13.5258L22.6829 14.9489C23.0461 14.615 23.5643 14.0826 24.1525 13.4134C23.9552 13.2067 23.7488 13.0057 23.5334 12.811Z" fill="#FF82B3"/>
<path d="M20.9043 14.1799C20.9693 12.9478 21.1451 11.3054 21.5005 9.70001C22.3371 5.92185 23.5406 4.94315 23.8896 4.73327C24.6502 4.27574 25.8182 4.78111 26.0061 5.64811C26.0921 6.04614 26.2038 7.59315 24.0246 10.7911C23.0988 12.15 22.0228 13.4033 21.1698 14.2948L20.9043 14.1799Z" fill="#EBEBEB"/>
<path d="M9.21428 14.1799C9.14928 12.9478 8.9735 11.3054 8.61804 9.70001C7.78148 5.92185 6.57802 4.94315 6.22897 4.73327C5.4684 4.27574 4.30042 4.78111 4.11273 5.64811C4.02644 6.04614 3.91475 7.59315 6.09393 10.7911C7.01976 12.15 8.09596 13.4033 8.94878 14.2948L9.21428 14.1799Z" fill="#EBEBEB"/>
<path d="M8.94887 14.2948L9.21437 14.1799C9.16928 13.3253 9.07063 12.2726 8.89577 11.1722C8.30136 11.497 7.73488 11.8705 7.20227 12.2905C7.8111 13.0561 8.42244 13.7446 8.94887 14.2948Z" fill="#D5D4DA"/>
<path d="M21.2229 11.1722C21.048 12.2726 20.9494 13.325 20.9043 14.1799L21.1698 14.2948C21.6962 13.7444 22.3076 13.0561 22.9162 12.2905C22.3836 11.8705 21.8173 11.497 21.2229 11.1722Z" fill="#D5D4DA"/>
<path d="M25.3261 20.7177C25.3261 15.5914 20.7294 11.4356 15.0593 11.4356C9.38924 11.4356 4.7926 15.5914 4.7926 20.7177C4.7926 25.8442 9.38924 30 15.0593 30C20.7294 30 25.3261 25.8442 25.3261 20.7177Z" fill="#FFAACB"/>
<path d="M16.5969 20.3286C17.5847 20.8717 18.2538 21.9223 18.2538 23.129C18.2538 24.8932 16.8235 26.3235 15.0593 26.3235C13.295 26.3235 11.8647 24.8932 11.8647 23.129C11.8647 21.9223 12.5338 20.8717 13.5216 20.3286H16.5969Z" fill="#EBEBEB"/>
<path d="M19.8556 20.8509C19.6056 20.8509 19.4028 20.6484 19.4028 20.3982V19.4657C19.4028 19.2156 19.6056 19.013 19.8556 19.013C20.1055 19.013 20.3083 19.2156 20.3083 19.4657V20.3982C20.3083 20.6484 20.1055 20.8509 19.8556 20.8509Z" fill="#4B5562"/>
<path d="M10.263 20.8509C10.0131 20.8509 9.8103 20.6484 9.8103 20.3982V19.4657C9.8103 19.2156 10.0131 19.013 10.263 19.013C10.513 19.013 10.7158 19.2156 10.7158 19.4657V20.3982C10.7158 20.6484 10.513 20.8509 10.263 20.8509Z" fill="#4B5562"/>
<path d="M10.2953 22.2217H9.02524C8.7753 22.2217 8.57251 22.0191 8.57251 21.769C8.57251 21.519 8.7753 21.3162 9.02524 21.3162H10.2953C10.5455 21.3162 10.748 21.519 10.748 21.769C10.748 22.0191 10.5455 22.2217 10.2953 22.2217Z" fill="#FF82B3"/>
<path d="M21.0933 22.2217H19.8232C19.573 22.2217 19.3705 22.0191 19.3705 21.769C19.3705 21.519 19.573 21.3162 19.8232 21.3162H21.0933C21.3434 21.3162 21.546 21.519 21.546 21.769C21.546 22.0191 21.3434 22.2217 21.0933 22.2217Z" fill="#FF82B3"/>
<path d="M16.3653 22.3746C15.8947 22.3746 15.512 21.9919 15.512 21.5215C15.512 21.2713 15.3092 21.0688 15.0593 21.0688C14.8093 21.0688 14.6065 21.2713 14.6065 21.5215C14.6065 21.9919 14.2238 22.3746 13.7533 22.3746C13.5033 22.3746 13.3005 22.5773 13.3005 22.8273C13.3005 23.0775 13.5033 23.28 13.7533 23.28C14.271 23.28 14.7372 23.055 15.0593 22.698C15.3813 23.055 15.8475 23.28 16.3653 23.28C16.6152 23.28 16.818 23.0775 16.818 22.8273C16.818 22.5773 16.6152 22.3746 16.3653 22.3746Z" fill="#4B5562"/>
<path d="M16.5969 20.3286C16.4215 21.0145 15.7994 21.5215 15.0592 21.5215C14.319 21.5215 13.6972 21.0145 13.5216 20.3286C13.9773 20.0773 14.5017 19.9344 15.0592 19.9344C15.6168 19.9344 16.1412 20.0773 16.5969 20.3286Z" fill="#FF82B3"/>
<path d="M8.86666 14.7805C8.86666 14.7805 7.39266 19.7349 5.09995 16.0325C2.80724 12.3299 7.8994 13.2184 7.8994 13.2184L8.86666 14.7805Z" fill="#34B5E1"/>
<path d="M10.1948 13.9582C10.1948 13.9582 15.2872 14.8467 12.9945 11.1441C10.7018 7.44166 9.22754 12.396 9.22754 12.396L10.1948 13.9582Z" fill="#34B5E1"/>
<path d="M8.46387 12.5635L8.38994 12.6093C7.83673 12.952 7.66599 13.6782 8.00862 14.2314C8.35126 14.7848 9.0775 14.9556 9.63071 14.613L9.70464 14.5672C10.2578 14.2245 10.4286 13.4983 10.086 12.9451C9.74332 12.3917 9.01708 12.2209 8.46387 12.5635Z" fill="#5BD6FD"/>
</g>
<defs>
<clipPath id="clip0_7_37">
<rect width="30" height="30" fill="white"/>
</clipPath>
</defs>
</svg>
