<svg width="47" height="32" viewBox="0 0 47 32" fill="none" xmlns="http://www.w3.org/2000/svg">
<rect x="0.99998" y="0.666667" width="45.3333" height="30.6667" rx="4.66667" fill="white" stroke="#D9D9D9" stroke-width="1.33333"/>
<path fill-rule="evenodd" clip-rule="evenodd" d="M13.5333 20.3218H11.4592C11.3172 20.3218 11.1965 20.4249 11.1744 20.565L10.3355 25.8838C10.3188 25.9887 10.4001 26.0833 10.5065 26.0833H11.4968C11.6387 26.0833 11.7594 25.9802 11.7816 25.8398L12.0078 24.4053C12.0296 24.2648 12.1507 24.1618 12.2923 24.1618H12.9489C14.3152 24.1618 15.1037 23.5006 15.3097 22.1904C15.4025 21.6172 15.3137 21.1668 15.0452 20.8513C14.7504 20.5051 14.2275 20.3218 13.5333 20.3218ZM13.7726 22.2644C13.6592 23.0087 13.0905 23.0087 12.5407 23.0087H12.2277L12.4473 21.6186C12.4603 21.5347 12.5331 21.4728 12.618 21.4728H12.7615C13.136 21.4728 13.4894 21.4728 13.672 21.6863C13.7808 21.8137 13.8142 22.0029 13.7726 22.2644ZM19.7335 22.2405H18.7402C18.6556 22.2405 18.5825 22.3024 18.5694 22.3865L18.5255 22.6642L18.456 22.5636C18.241 22.2515 17.7615 22.1472 17.2829 22.1472C16.1853 22.1472 15.2479 22.9785 15.0653 24.1447C14.9704 24.7263 15.1053 25.2825 15.4352 25.6704C15.738 26.0271 16.1711 26.1757 16.6863 26.1757C17.5707 26.1757 18.0612 25.607 18.0612 25.607L18.0168 25.8831C18.0001 25.9886 18.0814 26.0832 18.1872 26.0832H19.082C19.2243 26.0832 19.3443 25.98 19.3667 25.8397L19.9036 22.4401C19.9206 22.3355 19.8396 22.2405 19.7335 22.2405ZM18.3489 24.1737C18.2531 24.7412 17.8027 25.1221 17.2283 25.1221C16.9399 25.1221 16.7093 25.0296 16.5614 24.8543C16.4146 24.6802 16.3587 24.4324 16.4055 24.1565C16.495 23.5938 16.953 23.2005 17.5186 23.2005C17.8006 23.2005 18.0299 23.2941 18.1809 23.471C18.3322 23.6496 18.3923 23.8989 18.3489 24.1737ZM24.0253 22.2404H25.0235C25.1632 22.2404 25.2448 22.3972 25.1654 22.5118L21.8456 27.3037C21.7919 27.3813 21.7033 27.4275 21.6087 27.4275H20.6118C20.4714 27.4275 20.3895 27.2694 20.4707 27.1545L21.5044 25.6954L20.4051 22.469C20.367 22.3569 20.4498 22.2404 20.5691 22.2404H21.5499C21.6773 22.2404 21.7898 22.324 21.8265 22.446L22.41 24.3946L23.7867 22.3668C23.8406 22.2877 23.9301 22.2404 24.0253 22.2404Z" fill="#253B80"/>
<path fill-rule="evenodd" clip-rule="evenodd" d="M34.8473 25.8831L35.6985 20.467C35.7115 20.383 35.7844 20.3211 35.869 20.3208H36.8273C36.9332 20.3208 37.0144 20.4157 36.9977 20.5207L36.1583 25.8391C36.1364 25.9795 36.0157 26.0826 35.8735 26.0826H35.0176C34.9118 26.0826 34.8305 25.988 34.8473 25.8831ZM28.3281 20.3211H26.2535C26.1119 20.3211 25.9912 20.4242 25.9691 20.5643L25.1302 25.8831C25.1135 25.988 25.1947 26.0826 25.3007 26.0826H26.3651C26.4641 26.0826 26.5487 26.0105 26.5641 25.9123L26.8022 24.4046C26.8241 24.2641 26.9451 24.1611 27.0867 24.1611H27.743C29.1096 24.1611 29.8979 23.4999 30.1041 22.1897C30.1971 21.6165 30.1077 21.1661 29.8394 20.8506C29.5448 20.5044 29.0223 20.3211 28.3281 20.3211ZM28.5674 22.2637C28.4543 23.008 27.8855 23.008 27.3354 23.008H27.0227L27.2426 21.6179C27.2557 21.534 27.3278 21.4721 27.413 21.4721H27.5564C27.9307 21.4721 28.2844 21.4721 28.4669 21.6856C28.5758 21.813 28.6089 22.0022 28.5674 22.2637ZM34.5277 22.2398H33.5351C33.4498 22.2398 33.3774 22.3017 33.3646 22.3858L33.3207 22.6635L33.2509 22.5629C33.0359 22.2508 32.5567 22.1465 32.0781 22.1465C30.9804 22.1465 30.0433 22.9778 29.8607 24.144C29.7661 24.7256 29.9004 25.2818 30.2304 25.6697C30.5337 26.0264 30.9663 26.175 31.4815 26.175C32.3658 26.175 32.8562 25.6063 32.8562 25.6063L32.812 25.8824C32.7953 25.9879 32.8766 26.0825 32.9831 26.0825H33.8774C34.019 26.0825 34.1397 25.9793 34.1619 25.839L34.699 22.4394C34.7155 22.3348 34.6342 22.2398 34.5277 22.2398ZM33.1432 24.173C33.0479 24.7405 32.597 25.1214 32.0225 25.1214C31.7347 25.1214 31.5037 25.0289 31.3556 24.8536C31.2088 24.6795 31.1536 24.4317 31.1998 24.1558C31.2898 23.5931 31.7472 23.1998 32.3128 23.1998C32.5949 23.1998 32.8241 23.2934 32.9752 23.4703C33.1271 23.6489 33.1872 23.8982 33.1432 24.173Z" fill="#179BD7"/>
<path d="M21.2094 18.4184L21.4644 16.7988L20.8964 16.7856H18.1841L20.069 4.83379C20.0748 4.79771 20.0938 4.76407 20.1216 4.74018C20.1494 4.71629 20.1851 4.70312 20.2221 4.70312H24.7955C26.3138 4.70312 27.3615 5.01907 27.9086 5.64266C28.165 5.93521 28.3284 6.24091 28.4074 6.57733C28.4902 6.93034 28.4918 7.35209 28.4108 7.86647L28.4049 7.90402V8.2336L28.6614 8.37891C28.8774 8.49348 29.0489 8.62464 29.1806 8.77481C29.4001 9.02493 29.542 9.34283 29.6019 9.71971C29.6638 10.1073 29.6433 10.5686 29.542 11.0908C29.425 11.6915 29.2358 12.2146 28.9803 12.6427C28.7452 13.0371 28.4459 13.3642 28.0905 13.6178C27.7511 13.8587 27.3479 14.0416 26.892 14.1586C26.4502 14.2736 25.9466 14.3317 25.3942 14.3317H25.0383C24.7838 14.3317 24.5365 14.4233 24.3426 14.5877C24.148 14.7554 24.0192 14.9844 23.9797 15.2351L23.9529 15.3809L23.5024 18.2355L23.4819 18.3404C23.4766 18.3736 23.4673 18.3902 23.4537 18.4014C23.4415 18.4115 23.424 18.4184 23.4068 18.4184H21.2094Z" fill="#253B80"/>
<path d="M28.9042 7.94287C28.8906 8.03014 28.875 8.11936 28.8575 8.21103C28.2542 11.3076 26.1909 12.3773 23.5556 12.3773H22.2138C21.8916 12.3773 21.62 12.6113 21.5697 12.9292L20.8827 17.2862L20.6882 18.5211C20.6555 18.7298 20.8165 18.9181 21.027 18.9181H23.4069C23.6888 18.9181 23.9281 18.7133 23.9724 18.4354L23.9958 18.3144L24.444 15.4709L24.4728 15.315C24.5166 15.0361 24.7564 14.8313 25.0382 14.8313H25.3942C27.6999 14.8313 29.5049 13.8952 30.0325 11.1862C30.2528 10.0545 30.1387 9.10962 29.5556 8.44506C29.3792 8.24467 29.1602 8.07841 28.9042 7.94287Z" fill="#179BD7"/>
<path d="M28.2731 7.69109C28.181 7.66427 28.0858 7.63989 27.9883 7.61795C27.8903 7.5965 27.7898 7.57749 27.6865 7.56091C27.3247 7.5024 26.9283 7.47461 26.5036 7.47461H22.9191C22.8308 7.47461 22.747 7.4946 22.6719 7.53068C22.5066 7.61015 22.3838 7.76667 22.354 7.95827L21.5914 12.7881L21.5695 12.929C21.6197 12.6111 21.8913 12.3771 22.2135 12.3771H23.5553C26.1907 12.3771 28.2541 11.3069 28.8572 8.21084C28.8752 8.11917 28.8903 8.02995 28.9039 7.94268C28.7514 7.86174 28.586 7.79251 28.4081 7.7335C28.3643 7.71888 28.3189 7.70474 28.2731 7.69109Z" fill="#222D65"/>
<path d="M22.354 7.95838C22.3838 7.76676 22.5068 7.61025 22.6719 7.53127C22.7476 7.49518 22.831 7.47519 22.9191 7.47519H26.5038C26.9285 7.47519 27.3249 7.50298 27.6866 7.5615C27.79 7.57807 27.8905 7.59709 27.9884 7.61853C28.086 7.64049 28.181 7.66487 28.2732 7.69167C28.319 7.70533 28.3643 7.71946 28.4087 7.73361C28.5866 7.7926 28.752 7.86233 28.9045 7.94277C29.084 6.79845 28.9031 6.01932 28.2844 5.3138C27.6023 4.53711 26.3712 4.20459 24.7959 4.20459H20.2224C19.9006 4.20459 19.6262 4.43861 19.5764 4.757L17.6715 16.8316C17.6339 17.0705 17.8182 17.2861 18.059 17.2861H20.8826L21.5915 12.7882L22.354 7.95838Z" fill="#253B80"/>
</svg>
