<svg width="15" height="13" viewBox="0 0 15 13" fill="none" xmlns="http://www.w3.org/2000/svg">
<path d="M13.2473 3.74107C13.2473 3.88058 13.2473 3.99219 13.2473 4.1317C13.2473 8.01004 10.3176 12.4464 4.93258 12.4464C3.25847 12.4464 1.72388 11.9721 0.440394 11.135C0.663609 11.1629 0.886823 11.1908 1.13794 11.1908C2.50513 11.1908 3.76071 10.7165 4.76517 9.93527C3.48169 9.90737 2.39352 9.07031 2.0308 7.89844C2.22611 7.92634 2.39352 7.95424 2.58883 7.95424C2.83995 7.95424 3.11897 7.89844 3.34218 7.84263C2.00289 7.56362 0.99843 6.39174 0.99843 4.96875V4.94085C1.38906 5.16406 1.86339 5.27567 2.33772 5.30357C1.52856 4.77344 1.02633 3.88058 1.02633 2.87612C1.02633 2.31808 1.16584 1.81585 1.41696 1.39732C2.86785 3.15513 5.04419 4.32701 7.47164 4.46652C7.41584 4.2433 7.38794 4.02009 7.38794 3.79687C7.38794 2.17857 8.69932 0.867187 10.3176 0.867187C11.1547 0.867187 11.908 1.20201 12.4661 1.78795C13.1078 1.64844 13.7495 1.39732 14.3076 1.0625C14.0844 1.76004 13.6379 2.31808 13.0241 2.6808C13.61 2.625 14.196 2.45759 14.6982 2.23437C14.3076 2.82031 13.8054 3.32254 13.2473 3.74107Z" fill="#EFF2F3"/>
</svg>
