<svg class="d-inline-flex align-items-center justify-content-center" width="28" height="28" viewBox="0 0 28 28" xmlns="http://www.w3.org/2000/svg">
				<g clip-path="url(#clip0_116_452)">
				<path d="M14.001 6.52898C16.35 4.41998 19.98 4.48998 22.243 6.75698C24.505 9.02498 24.583 12.637 22.479 14.993L13.999 23.485L5.52101 14.993C3.41701 12.637 3.49601 9.01898 5.75701 6.75698C8.02201 4.49298 11.645 4.41698 14.001 6.52898ZM20.827 8.16998C19.327 6.66798 16.907 6.60698 15.337 8.01698L14.002 9.21498L12.666 8.01798C11.091 6.60598 8.67601 6.66798 7.17201 8.17198C5.68201 9.66198 5.60701 12.047 6.98001 13.623L14 20.654L21.02 13.624C22.394 12.047 22.319 9.66498 20.827 8.16998Z"/>
				</g>
				<defs>
				<clipPath id="clip0_116_452">
					<rect width="24" height="24" fill="white" transform="translate(2 2)"/>
				</clipPath>
				</defs>
			</svg>