<svg width="47" height="32" viewBox="0 0 47 32" fill="none" xmlns="http://www.w3.org/2000/svg">
<rect x="0.666667" y="0.666667" width="45.3333" height="30.6667" rx="4.66667" fill="white" stroke="#D9D9D9" stroke-width="1.33333"/>
<path fill-rule="evenodd" clip-rule="evenodd" d="M23.6666 22.8758C22.0778 24.2468 20.017 25.0745 17.765 25.0745C12.7401 25.0745 8.66666 20.9537 8.66666 15.8705C8.66666 10.7873 12.7401 6.6665 17.765 6.6665C20.0171 6.6665 22.078 7.49421 23.6668 8.86531C25.2555 7.49431 27.3164 6.66667 29.5683 6.66667C34.5932 6.66667 38.6667 10.7874 38.6667 15.8706C38.6667 20.9539 34.5932 25.0746 29.5683 25.0746C27.3163 25.0746 25.2554 24.2469 23.6666 22.8758Z" fill="#ED0006"/>
<path fill-rule="evenodd" clip-rule="evenodd" d="M23.6667 22.8757C25.6229 21.1876 26.8634 18.6756 26.8634 15.8705C26.8634 13.0654 25.6229 10.5534 23.6667 8.86522C25.2554 7.49418 27.3163 6.6665 29.5683 6.6665C34.5932 6.6665 38.6667 10.7873 38.6667 15.8705C38.6667 20.9537 34.5932 25.0745 29.5683 25.0745C27.3163 25.0745 25.2554 24.2468 23.6667 22.8757Z" fill="#F9A000"/>
<path fill-rule="evenodd" clip-rule="evenodd" d="M23.6667 22.8757C25.6229 21.1875 26.8634 18.6756 26.8634 15.8705C26.8634 13.0654 25.6229 10.5534 23.6667 8.86523C21.7104 10.5534 20.47 13.0654 20.47 15.8705C20.47 18.6756 21.7104 21.1875 23.6667 22.8757Z" fill="#FF5E00"/>
</svg>
