<svg width="16" height="17" viewBox="0 0 16 17" fill="none" xmlns="http://www.w3.org/2000/svg">
<path d="M14.1529 11.8324C13.1259 10.954 12.0837 10.422 11.0693 11.299L10.4636 11.8291C10.0204 12.2139 9.19641 14.0118 6.01061 10.347C2.82546 6.68684 4.72089 6.11695 5.16473 5.73548L5.77376 5.20473C6.78284 4.32568 6.40203 3.21907 5.67424 2.07996L5.23505 1.38999C4.50395 0.253528 3.70783 -0.492834 2.69609 0.384888L2.14943 0.862559C1.70227 1.1883 0.452364 2.24714 0.149176 4.25867C-0.215713 6.67224 0.935344 9.4361 3.57249 12.4687C6.20632 15.5025 8.78508 17.0264 11.2278 16.9999C13.2579 16.978 14.484 15.8887 14.8674 15.4926L15.4161 15.0142C16.4252 14.1372 15.7982 13.2442 14.7706 12.3638L14.1529 11.8324Z" fill="#EFF2F3"/>
</svg>
