<svg width="48" height="32" viewBox="0 0 48 32" fill="none" xmlns="http://www.w3.org/2000/svg">
<rect x="1.33335" y="0.666667" width="45.3333" height="30.6667" rx="4.66667" fill="white" stroke="#D9D9D9" stroke-width="1.33333"/>
<path fill-rule="evenodd" clip-rule="evenodd" d="M6.06872 18.8972L6.06872 18.8971L6.06872 18.8971C6.1026 18.7046 6.13542 18.5181 6.17315 18.3316C6.33296 17.4878 6.49387 16.6452 6.65479 15.8025L6.65482 15.8024C6.81573 14.9598 6.97663 14.1172 7.13643 13.2735C7.15863 13.1666 7.1897 13.0954 7.29624 13.0776C8.12634 12.9529 8.96089 12.8639 9.79099 13.0731C10.5146 13.2512 11.0206 13.7633 11.105 14.3644C11.2781 15.5621 10.5811 16.5194 9.54684 16.8622C9.00084 17.0403 8.44596 17.0849 7.88219 17.0314C7.74902 17.0181 7.70907 17.0537 7.68688 17.1828C7.56702 17.8373 7.44273 18.4874 7.31399 19.1375C7.30512 19.1909 7.25629 19.2755 7.22521 19.2755C6.92353 19.2821 6.62681 19.2813 6.31839 19.2805H6.31839H6.31838H6.31838H6.31817H6.31796H6.31775H6.31754H6.31732C6.21311 19.2802 6.10756 19.2799 6.00003 19.2799C6.02444 19.1488 6.04679 19.0218 6.06871 18.8972L6.06871 18.8972L6.06872 18.8972L6.06872 18.8972L6.06872 18.8972ZM8.16156 15.9766H8.16157C8.3352 15.9814 8.49917 15.9858 8.65904 15.9677C9.1207 15.9187 9.48914 15.7094 9.69778 15.2686C9.93305 14.7699 9.76436 14.2401 9.32046 14.0843C9.00528 13.9729 8.68123 13.9952 8.35718 14.0397C8.31723 14.0442 8.26396 14.1065 8.25508 14.1466C8.19299 14.473 8.13089 14.8007 8.06647 15.1408L7.90883 15.9721C7.99561 15.9721 8.07965 15.9744 8.16154 15.9766L8.16156 15.9766ZM13.6701 18.6444L13.6701 18.6444C13.5312 18.8 13.3993 18.9478 13.2446 19.0665C12.7785 19.4272 12.2458 19.5073 11.7086 19.258C11.176 19.0131 10.9584 18.5367 10.9363 17.9757C10.8874 16.7957 11.3003 15.8206 12.2902 15.1439C12.9116 14.7164 13.6263 14.5873 14.3676 14.6274C14.6129 14.6418 14.8562 14.6845 15.1001 14.7273C15.2315 14.7503 15.3631 14.7734 15.4952 14.7921C15.6461 14.8144 15.6683 14.899 15.6417 15.0281C15.606 15.2143 15.57 15.4003 15.534 15.5862C15.3996 16.2804 15.2654 16.973 15.1534 17.6684C15.0891 18.0665 15.0635 18.4743 15.0381 18.8779L15.0381 18.878C15.0337 18.9484 15.0292 19.0187 15.0246 19.0888C15.0158 19.2313 14.9802 19.2892 14.8337 19.2847C14.5585 19.2758 14.2833 19.2758 14.0081 19.2847C13.866 19.2892 13.8172 19.2357 13.8305 19.0977C13.8432 18.9452 13.8513 18.7881 13.8598 18.6248L13.8598 18.6246C13.8632 18.5592 13.8667 18.4928 13.8705 18.4254C13.8002 18.4986 13.7345 18.5723 13.6702 18.6444L13.6701 18.6444ZM14.1812 15.6735C13.7506 15.5533 13.3911 15.6379 13.0892 15.8917C12.521 16.3725 12.2635 16.9959 12.3124 17.7395C12.3257 17.9665 12.4145 18.1847 12.6542 18.2827C12.8939 18.3806 13.1114 18.3094 13.2978 18.1491C13.4088 18.0511 13.5154 17.9398 13.5953 17.8152C13.9084 17.3358 13.9939 16.7951 14.0808 16.2459C14.1109 16.0554 14.1412 15.8638 14.1812 15.6735ZM20.4714 18.1672C20.7155 18.9509 21.3858 19.3872 22.5622 19.3872C23.3701 19.365 24.1736 18.9063 24.6752 17.9624C24.9415 17.4548 25.0392 16.9116 25.0037 16.3417C24.9726 15.794 24.7551 15.331 24.3112 15.0015C23.8451 14.6542 23.3124 14.5829 22.7442 14.6453C20.8443 14.859 20.0674 16.876 20.4714 18.1672ZM21.7355 17.5131L21.7355 17.513C21.736 17.4903 21.7365 17.4677 21.7365 17.4457C21.7498 16.9336 21.8741 16.4572 22.1804 16.0342C22.318 15.8472 22.4912 15.7047 22.722 15.6513C23.1925 15.5444 23.5787 15.816 23.6231 16.3281C23.6764 16.9559 23.5255 17.5347 23.1304 18.0378C22.9795 18.2248 22.7886 18.354 22.5444 18.3762C22.105 18.4163 21.772 18.118 21.7365 17.6505C21.7336 17.6058 21.7346 17.5591 21.7355 17.5131ZM26.0602 14.7386H27.1877C27.17 14.9791 27.1522 15.2106 27.13 15.4466C27.1711 15.4082 27.2109 15.3703 27.2499 15.3331C27.3329 15.2538 27.4124 15.1779 27.494 15.1082C27.9335 14.7253 28.4351 14.5561 29.0166 14.6496C29.496 14.7297 29.829 15.0815 29.8822 15.5757C29.9401 16.09 29.844 16.5888 29.748 17.0866L29.7269 17.1964C29.6879 17.3988 29.6494 17.6012 29.6109 17.8034C29.5266 18.2463 29.4424 18.6886 29.354 19.1288C29.3407 19.1867 29.2741 19.2713 29.2297 19.2758C28.8479 19.2847 28.4662 19.2802 28.0845 19.2758H28.0844C28.0716 19.2758 28.0588 19.2688 28.0394 19.2583L28.0246 19.2503L28.0134 19.2446C28.0844 18.875 28.1554 18.501 28.222 18.127C28.3241 17.5526 28.4218 16.9827 28.5106 16.4083C28.5283 16.3104 28.5194 16.208 28.5061 16.11C28.4706 15.7672 28.2176 15.6113 27.8891 15.7137C27.5695 15.8162 27.3786 16.0655 27.2232 16.3416C26.9924 16.7467 26.9125 17.1964 26.8326 17.6461L26.8326 17.6461C26.8126 17.7576 26.7928 17.8688 26.773 17.98C26.7051 18.3615 26.6374 18.7416 26.5618 19.1244C26.5485 19.1823 26.4819 19.2713 26.4375 19.2758C26.1262 19.2864 25.8121 19.2857 25.4772 19.285C25.3919 19.2849 25.3051 19.2847 25.2168 19.2847C25.5098 17.753 25.785 16.2525 26.0602 14.7386ZM32.4613 18.3495C31.9907 18.2916 31.6756 17.9621 31.7066 17.499C31.8048 17.499 31.9025 17.5005 31.9996 17.502C32.1925 17.505 32.3833 17.5079 32.5723 17.499C33.0295 17.4723 33.4778 17.3966 33.8951 17.1873C34.4278 16.9202 34.6764 16.4794 34.6364 15.905C34.5965 15.3217 34.2813 14.8987 33.7175 14.7295C32.8741 14.4758 32.0973 14.6539 31.4359 15.2193C30.6324 15.905 30.3305 16.8133 30.4459 17.8508C30.5259 18.5854 30.9254 19.1108 31.6534 19.2978C32.4346 19.4982 33.2026 19.3913 33.9439 19.0886C33.9972 19.0663 34.0593 18.9817 34.0549 18.9283C34.0443 18.711 34.0222 18.4937 34.0002 18.2764C33.9947 18.2221 33.9892 18.1678 33.9839 18.1135C33.9693 18.1135 33.9585 18.1127 33.9501 18.1121C33.9382 18.1113 33.9314 18.1108 33.9262 18.1135C33.8773 18.1313 33.8285 18.1491 33.7841 18.1669C33.358 18.3316 32.9185 18.4029 32.4613 18.3495ZM33.1493 16.3765C32.8785 16.519 32.1772 16.6036 31.8354 16.5324C31.9064 15.9402 32.5323 15.4771 33.0605 15.6062C33.2381 15.6508 33.3668 15.7443 33.3979 15.9357C33.429 16.1227 33.3358 16.2786 33.1493 16.3765ZM36.1413 17.5171C36.1014 17.9534 36.4121 18.2874 36.8871 18.3497C37.331 18.4031 37.7571 18.3363 38.1744 18.185C38.2129 18.1705 38.25 18.156 38.2908 18.1402C38.3253 18.1267 38.3625 18.1122 38.4052 18.0959C38.4139 18.1902 38.4235 18.2826 38.433 18.3738C38.4527 18.5623 38.4717 18.7454 38.4807 18.9285C38.4851 18.982 38.423 19.0666 38.3742 19.0888C37.6195 19.4005 36.8427 19.5074 36.0481 19.2892C35.3334 19.0933 34.9605 18.5723 34.8717 17.8599C34.7608 16.9472 34.996 16.1234 35.6308 15.4467C36.3144 14.7209 37.1534 14.4627 38.1211 14.7298C38.7115 14.8945 39.0267 15.322 39.0622 15.9231C39.0977 16.5108 38.8314 16.9516 38.2765 17.2099C37.7172 17.4681 37.1223 17.5082 36.5186 17.5215C36.3988 17.5171 36.2745 17.5171 36.1413 17.5171ZM36.2701 16.569C36.3508 16.5639 36.4302 16.5599 36.5083 16.556C36.7052 16.5461 36.895 16.5366 37.0824 16.5111C37.26 16.4888 37.4376 16.4354 37.5974 16.3597C37.7705 16.284 37.8548 16.1237 37.8282 15.9278C37.8016 15.7408 37.6773 15.6518 37.5041 15.6072C36.9803 15.4647 36.3278 15.9456 36.2701 16.569ZM39.3063 18.3495C39.2486 18.6522 39.1953 18.9505 39.1376 19.28C39.2265 19.28 39.3141 19.2802 39.4008 19.2804C39.7423 19.2811 40.0681 19.2818 40.3939 19.2711C40.4249 19.2711 40.4738 19.1865 40.4826 19.1331C40.5279 18.9107 40.5699 18.6872 40.6119 18.4638C40.6892 18.052 40.7666 17.6404 40.8644 17.2363C41.0819 16.3369 41.4504 16.0252 42.3248 15.9095C42.3604 15.905 42.4181 15.8649 42.4269 15.8338C42.4827 15.5778 42.5326 15.3199 42.5844 15.0524C42.611 14.915 42.638 14.7751 42.6667 14.6316C41.8232 14.5425 41.3527 15.0323 40.9443 15.6334L40.9508 15.547C40.9709 15.281 40.9913 15.0103 41.0153 14.7251C40.923 14.7251 40.8325 14.7248 40.7432 14.7245C40.4803 14.7237 40.2284 14.7229 39.9766 14.7295C39.9411 14.734 39.8745 14.8141 39.87 14.8631C39.7753 16.0075 39.5512 17.1268 39.3271 18.2453L39.3063 18.3495Z" fill="black"/>
<path fill-rule="evenodd" clip-rule="evenodd" d="M27.5534 9.36731C27.5084 9.35541 27.4635 9.34351 27.4185 9.3335C27.2809 9.3335 27.1433 9.3335 26.9968 9.33795C26.9468 9.34799 26.8968 9.35893 26.8463 9.36996C26.7849 9.3834 26.7228 9.39696 26.6595 9.40919C25.9803 9.53831 25.3411 9.7743 24.724 10.086C23.3879 10.7628 22.1893 11.6399 21.1151 12.6773C20.4004 13.363 19.7079 14.0799 19.0376 14.8146C17.8612 16.1058 16.8536 17.5261 16.0501 19.0845C15.6373 19.8904 15.2644 20.7142 15.0957 21.6091C15.0646 21.7739 15.1179 21.9653 15.1712 22.1301C15.1933 22.1968 15.3176 22.2458 15.402 22.2725C15.4242 22.2814 15.4908 22.1701 15.5218 22.1078C15.5329 22.0836 15.5442 22.0589 15.5557 22.0336C15.7485 21.6113 16.0092 21.0402 16.2354 20.6621C16.7148 19.8606 17.0933 19.2404 17.6304 18.479C18.4916 17.2545 19.4978 16.0532 20.5543 14.9935C21.5531 13.9916 22.5533 13.0959 23.8096 12.4191C24.3867 12.1119 24.977 11.8091 25.5808 11.5598C26.6239 11.1279 27.7115 10.834 28.8302 10.6693C28.95 10.6514 29.1098 10.5579 29.1498 10.46C29.1853 10.3709 29.1009 10.2017 29.0166 10.1171C28.6748 9.76539 28.2753 9.49824 27.7781 9.41809C27.7032 9.40696 27.6283 9.38714 27.5534 9.36731ZM17.3907 15.4421C17.6038 14.8633 17.7103 14.2622 17.7237 13.6388C17.7177 13.572 17.7128 13.5052 17.7079 13.4385C17.698 13.3049 17.6881 13.1713 17.6704 13.0377C17.5505 12.0047 17.1066 11.1276 16.4008 10.3751C16.3165 10.2905 16.2011 10.2237 16.0856 10.1837C15.9702 10.1391 15.8948 10.2059 15.9036 10.3395C15.9039 10.3423 15.9041 10.3451 15.9043 10.348C15.913 10.4611 15.9219 10.5783 15.9436 10.6912C15.9748 10.8692 16.0058 11.0473 16.0368 11.2256C16.1469 11.8592 16.2574 12.4943 16.3786 13.1268C16.4985 13.7635 16.6316 14.3957 16.7737 15.0236C16.8225 15.2239 16.9024 15.4243 17.0001 15.6113C17.0756 15.7538 17.1821 15.7404 17.2798 15.6113C17.3241 15.5579 17.3685 15.5044 17.3907 15.4421Z" fill="#FC461E"/>
</svg>
