<svg width="47" height="32" viewBox="0 0 47 32" fill="none" xmlns="http://www.w3.org/2000/svg">
<rect x="0.666667" y="0.666667" width="45.3333" height="30.6667" rx="4.66667" fill="white" stroke="#D9D9D9" stroke-width="1.33333"/>
<path fill-rule="evenodd" clip-rule="evenodd" d="M11.1283 11.9108C11.755 11.9636 12.3818 11.5936 12.7735 11.1244C13.1586 10.642 13.4132 9.99434 13.348 9.3335C12.793 9.35993 12.1076 9.70357 11.7159 10.186C11.3568 10.6023 11.05 11.2764 11.1283 11.9108ZM18.5837 20.4224V10.12H22.4028C24.3743 10.12 25.7518 11.4945 25.7518 13.5035C25.7518 15.5124 24.3482 16.9002 22.3505 16.9002H20.1635V20.4224H18.5837ZM13.3414 12.0361C12.7892 12.004 12.2854 12.2042 11.8785 12.366C11.6166 12.4701 11.3949 12.5582 11.2262 12.5582C11.0368 12.5582 10.8059 12.4654 10.5467 12.3611C10.207 12.2245 9.81858 12.0683 9.41129 12.0758C8.47774 12.089 7.60947 12.6243 7.1329 13.4768C6.15365 15.1817 6.87829 17.7062 7.8249 19.0939C8.28842 19.7812 8.84333 20.5345 9.5745 20.5081C9.89617 20.4958 10.1276 20.3964 10.367 20.2936C10.6427 20.1752 10.9291 20.0521 11.3763 20.0521C11.808 20.0521 12.0819 20.1719 12.3448 20.287C12.5948 20.3963 12.8348 20.5013 13.1912 20.4949C13.9485 20.4817 14.4251 19.8076 14.8886 19.1204C15.3888 18.3827 15.6086 17.6628 15.642 17.5536L15.6459 17.5409C15.6451 17.5401 15.6389 17.5373 15.628 17.5322L15.628 17.5322C15.4608 17.4547 14.1827 16.8625 14.1705 15.2743C14.1581 13.9412 15.1842 13.2658 15.3457 13.1595L15.3457 13.1595C15.3555 13.153 15.3621 13.1486 15.3651 13.1464C14.7123 12.1683 13.6939 12.0626 13.3414 12.0361ZM28.6374 20.5016C29.6297 20.5016 30.5502 19.9928 30.968 19.1866H31.0007V20.4223H32.463V15.2942C32.463 13.8073 31.2879 12.8491 29.4796 12.8491C27.8018 12.8491 26.5614 13.8206 26.5157 15.1555H27.9389C28.0564 14.521 28.6374 14.1047 29.4339 14.1047C30.4001 14.1047 30.9419 14.5607 30.9419 15.4V15.9683L28.9704 16.0872C27.1359 16.1996 26.1436 16.9595 26.1436 18.2812C26.1436 19.6161 27.1685 20.5016 28.6374 20.5016ZM29.0617 19.2794C28.2195 19.2794 27.6842 18.8697 27.6842 18.2419C27.6842 17.5942 28.1999 17.2176 29.1857 17.1581L30.9418 17.0457V17.6273C30.9418 18.5921 30.1323 19.2794 29.0617 19.2794ZM37.3135 20.8253C36.6802 22.6294 35.9556 23.2241 34.4149 23.2241C34.2974 23.2241 33.9057 23.2109 33.8143 23.1845V21.9487C33.9122 21.9619 34.1538 21.9752 34.2778 21.9752C34.9764 21.9752 35.3681 21.6778 35.6096 20.9046L35.7532 20.4486L33.0766 12.9481H34.7283L36.5889 19.0344H36.6215L38.4821 12.9481H40.088L37.3135 20.8253ZM20.1634 11.4683H21.9848C23.3558 11.4683 24.1392 12.2084 24.1392 13.5103C24.1392 14.8121 23.3558 15.5589 21.9783 15.5589H20.1634V11.4683Z" fill="black"/>
</svg>
