<svg width="15" height="15" viewBox="0 0 15 15" fill="none" xmlns="http://www.w3.org/2000/svg">
<path d="M14.5029 7.64286C14.5029 11.4654 11.4058 14.5625 7.58325 14.5625C6.85781 14.5625 6.16026 14.4788 5.51852 14.2556C5.79754 13.8092 6.21606 13.0558 6.38347 12.442C6.46718 12.135 6.802 10.7958 6.802 10.7958C7.02522 11.2422 7.69486 11.6049 8.3924 11.6049C10.485 11.6049 11.9917 9.67969 11.9917 7.30804C11.9917 5.02009 10.1223 3.29018 7.72276 3.29018C4.73727 3.29018 3.14687 5.29911 3.14687 7.47545C3.14687 8.50781 3.677 9.76339 4.54196 10.1819C4.68147 10.2377 4.76517 10.2098 4.79307 10.0703C4.79307 9.98661 4.93258 9.51228 4.98839 9.28906C4.98839 9.23326 4.98839 9.14955 4.93258 9.09375C4.65356 8.75893 4.43035 8.11719 4.43035 7.50335C4.43035 5.99665 5.57432 4.51786 7.55535 4.51786C9.22946 4.51786 10.4292 5.66183 10.4292 7.33594C10.4292 9.20536 9.48057 10.4888 8.25289 10.4888C7.58325 10.4888 7.08102 9.9308 7.22053 9.26116C7.41584 8.42411 7.80647 7.53125 7.80647 6.94531C7.80647 6.41518 7.52745 5.96875 6.94151 5.96875C6.24397 5.96875 5.68593 6.6942 5.68593 7.64286C5.68593 8.2567 5.88124 8.67522 5.88124 8.67522C5.88124 8.67522 5.2116 11.577 5.07209 12.1071C4.93258 12.721 4.98839 13.558 5.04419 14.0882C2.47722 13.0837 0.663609 10.6004 0.663609 7.64286C0.663609 3.82031 3.76071 0.723214 7.58325 0.723214C11.4058 0.723214 14.5029 3.82031 14.5029 7.64286Z" fill="#EFF2F3"/>
</svg>
