<svg width="21" height="16" viewBox="0 0 21 16" fill="none" xmlns="http://www.w3.org/2000/svg">
<path d="M10.5825 15.2653C10.5809 15.2653 10.579 15.2653 10.5772 15.2653C9.97372 15.2612 4.63863 15.2126 3.12709 14.8038C2.07072 14.5198 1.23683 13.6868 0.952096 12.6303C0.556587 11.1455 0.581764 8.28673 0.584511 8.05845C0.581917 7.83125 0.556434 4.94886 0.950875 3.45182C0.951333 3.45044 0.951638 3.44892 0.952096 3.44755C1.23362 2.40308 2.08628 1.54431 3.12449 1.25958C3.12709 1.25882 3.12983 1.25821 3.13243 1.25745C4.62688 0.864685 9.9725 0.81662 10.5772 0.8125H10.588C11.1931 0.81662 16.5423 0.865296 18.04 1.27469C19.0936 1.55789 19.9269 2.3898 20.2124 3.44495C20.6227 4.94306 20.5847 7.83171 20.5806 8.07554C20.5835 8.31572 20.6074 11.1488 20.2142 12.6411C20.2139 12.6427 20.2135 12.644 20.2131 12.6454C19.9283 13.7019 19.0945 14.5349 18.0369 14.8192C18.0356 14.8196 18.034 14.8199 18.0327 14.8204C16.5384 15.213 11.1926 15.2611 10.588 15.2653C10.5862 15.2653 10.5844 15.2653 10.5825 15.2653ZM2.46119 3.85251C2.1139 5.17393 2.14671 8.01954 2.14701 8.04823V8.06883C2.13664 8.85802 2.17311 11.1435 2.46135 12.2259C2.60112 12.7443 3.01234 13.1549 3.53389 13.2951C4.64915 13.5968 8.99441 13.6917 10.5825 13.7028C12.1748 13.6917 16.5265 13.5994 17.6335 13.3098C18.1534 13.1691 18.5632 12.7598 18.7039 12.2409C18.9924 11.1426 19.0286 8.86824 19.0181 8.08409C19.0181 8.07585 19.0181 8.06761 19.0182 8.05937C19.0326 7.26072 19.0043 4.94855 18.7053 3.8574C18.705 3.85633 18.7047 3.85526 18.7045 3.85419C18.5641 3.33356 18.1528 2.92295 17.6312 2.78272C16.5268 2.48075 12.1745 2.38614 10.5825 2.375C8.99136 2.38614 4.64397 2.4783 3.53358 2.76761C3.02195 2.90952 2.60142 3.33478 2.46119 3.85251ZM8.59112 11.2028V4.87485L14.0599 8.03892L8.59112 11.2028Z" fill="#EFF2F3"/>
</svg>
