<svg width="24" height="24" viewBox="0 0 24 24" fill="none" xmlns="http://www.w3.org/2000/svg">
<circle cx="12" cy="12" r="12" fill="#EDA62A"/>
<g clip-path="url(#clip0_24_3112)">
<path d="M8.44527 13.9768C9.62886 15.3916 11.0536 16.5056 12.6798 17.2938C13.299 17.5872 14.127 17.9353 15.0495 17.995C15.1067 17.9975 15.1614 18 15.2186 18C15.8377 18 16.335 17.7862 16.7403 17.346C16.7428 17.3436 16.7478 17.3386 16.7503 17.3336C16.8945 17.1596 17.0586 17.0029 17.2302 16.8363C17.347 16.7244 17.4664 16.6075 17.5808 16.4882C18.1104 15.9362 18.1104 15.235 17.5758 14.7004L16.0814 13.206C15.8278 12.9424 15.5244 12.8031 15.2061 12.8031C14.8879 12.8031 14.582 12.9424 14.3209 13.2035L13.4308 14.0937C13.3487 14.0464 13.2642 14.0041 13.1846 13.9644C13.0851 13.9146 12.9931 13.8674 12.9111 13.8152C12.1005 13.3005 11.3645 12.6291 10.6608 11.7663C10.3052 11.3162 10.0665 10.9383 9.89989 10.5528C10.1336 10.3415 10.3524 10.1202 10.5638 9.90385C10.6384 9.82677 10.7155 9.74969 10.7926 9.67261C11.0611 9.40406 11.2053 9.09324 11.2053 8.77746C11.2053 8.46167 11.0636 8.15085 10.7926 7.8823L10.0516 7.14132C9.96454 7.05429 9.88248 6.96975 9.79794 6.88272C9.63383 6.71363 9.46226 6.53958 9.29317 6.38293C9.03706 6.13179 8.73619 6 8.41792 6C8.10213 6 7.79877 6.13179 7.53271 6.38541L6.60275 7.31538C6.26458 7.65354 6.07312 8.06382 6.03333 8.53875C5.98609 9.13303 6.0955 9.76461 6.37896 10.528C6.8141 11.7091 7.47055 12.8056 8.44527 13.9768ZM6.64005 8.59097C6.66988 8.26026 6.7967 7.98425 7.0354 7.74554L7.96039 6.82056C8.10461 6.68131 8.26375 6.6092 8.41792 6.6092C8.56959 6.6092 8.72376 6.68131 8.86549 6.82553C9.03209 6.97969 9.18874 7.14132 9.35782 7.31289C9.44237 7.39992 9.5294 7.48695 9.61642 7.57646L10.3574 8.31745C10.5116 8.47161 10.5911 8.62826 10.5911 8.78243C10.5911 8.93659 10.5116 9.09325 10.3574 9.24741C10.2803 9.32449 10.2032 9.40406 10.1262 9.48114C9.89492 9.71488 9.67859 9.93618 9.43988 10.1475C9.43491 10.1525 9.43242 10.155 9.42745 10.16C9.22107 10.3663 9.25339 10.5628 9.30312 10.712C9.30561 10.7194 9.30809 10.7244 9.31058 10.7319C9.50204 11.1919 9.7681 11.6295 10.1834 12.1517C10.9293 13.0717 11.7151 13.7853 12.5804 14.3349C12.6873 14.4045 12.8017 14.4592 12.9086 14.5139C13.0081 14.5636 13.1001 14.6109 13.1821 14.6631C13.1921 14.668 13.1995 14.673 13.2095 14.678C13.2915 14.7203 13.3711 14.7402 13.4507 14.7402C13.6496 14.7402 13.7789 14.6133 13.8211 14.5711L14.7511 13.6411C14.8953 13.4969 15.052 13.4198 15.2061 13.4198C15.3951 13.4198 15.5493 13.5367 15.6463 13.6411L17.1456 15.138C17.444 15.4364 17.4415 15.7596 17.1382 16.0754C17.0337 16.1873 16.9243 16.2942 16.8075 16.4061C16.6334 16.5752 16.4519 16.7493 16.2878 16.9457C16.0018 17.254 15.6612 17.3983 15.2211 17.3983C15.1788 17.3983 15.134 17.3958 15.0918 17.3933C14.2762 17.3411 13.5178 17.0228 12.9484 16.7518C11.4018 16.0033 10.0441 14.9416 8.91771 13.5939C7.99023 12.4774 7.36611 11.438 6.95335 10.3241C6.69724 9.64028 6.60026 9.09076 6.64005 8.59097Z" fill="#294646"/>
</g>
<defs>
<clipPath id="clip0_24_3112">
<rect width="12" height="12" fill="white" transform="translate(6 6)"/>
</clipPath>
</defs>
</svg>
