<svg width="25" height="17" viewBox="0 0 25 17" fill="none" xmlns="http://www.w3.org/2000/svg">
<path d="M21.9739 0H2.19263C1.02717 0 0.083252 0.949781 0.083252 2.10938V14.7656C0.083252 15.9321 1.03411 16.875 2.19263 16.875H21.9739C23.1296 16.875 24.0833 15.9361 24.0833 14.7656V2.10938C24.0833 0.951844 23.1431 0 21.9739 0ZM21.6785 1.40625C21.2475 1.83492 13.8309 9.21249 13.5748 9.4672C13.1764 9.86564 12.6467 10.085 12.0833 10.085C11.5198 10.085 10.9901 9.86559 10.5904 9.46589C10.4182 9.29456 3.08339 1.99847 2.48803 1.40625H21.6785ZM1.4895 14.4794V2.39648L7.56628 8.44125L1.4895 14.4794ZM2.48892 15.4688L8.56331 9.43298L9.59733 10.4616C10.2614 11.1256 11.1442 11.4913 12.0833 11.4913C13.0223 11.4913 13.9051 11.1256 14.5679 10.4629L15.6032 9.43298L21.6776 15.4688H2.48892ZM22.677 14.4794L16.6002 8.44125L22.677 2.39648V14.4794Z" fill="#EFF2F3"/>
</svg>
