<svg width="13" height="13" viewBox="0 0 13 13" fill="none" xmlns="http://www.w3.org/2000/svg">
<path d="M6.58325 3.43415C8.34106 3.43415 9.79196 4.88504 9.79196 6.64286C9.79196 8.42857 8.34106 9.85156 6.58325 9.85156C4.79754 9.85156 3.37455 8.42857 3.37455 6.64286C3.37455 4.88504 4.79754 3.43415 6.58325 3.43415ZM6.58325 8.73549C7.72723 8.73549 8.64798 7.81473 8.64798 6.64286C8.64798 5.49888 7.72723 4.57812 6.58325 4.57812C5.41138 4.57812 4.49062 5.49888 4.49062 6.64286C4.49062 7.81473 5.43928 8.73549 6.58325 8.73549ZM10.6569 3.32254C10.6569 3.74107 10.3221 4.07589 9.90356 4.07589C9.48504 4.07589 9.15022 3.74107 9.15022 3.32254C9.15022 2.90402 9.48504 2.5692 9.90356 2.5692C10.3221 2.5692 10.6569 2.90402 10.6569 3.32254ZM12.7774 4.07589C12.8333 5.10826 12.8333 8.20536 12.7774 9.23772C12.7216 10.2422 12.4984 11.1071 11.773 11.8605C11.0475 12.5859 10.1547 12.8092 9.15022 12.865C8.11785 12.9208 5.02075 12.9208 3.98839 12.865C2.98392 12.8092 2.11897 12.5859 1.36562 11.8605C0.640171 11.1071 0.416957 10.2422 0.361153 9.23772C0.30535 8.20536 0.30535 5.10826 0.361153 4.07589C0.416957 3.07143 0.640171 2.17857 1.36562 1.45312C2.11897 0.727678 2.98392 0.504464 3.98839 0.44866C5.02075 0.392856 8.11785 0.392856 9.15022 0.44866C10.1547 0.504464 11.0475 0.727678 11.773 1.45312C12.4984 2.17857 12.7216 3.07143 12.7774 4.07589ZM11.4382 10.3259C11.773 9.51674 11.6893 7.56362 11.6893 6.64286C11.6893 5.75 11.773 3.79687 11.4382 2.95982C11.2149 2.42969 10.7964 1.98326 10.2663 1.78795C9.42923 1.45312 7.47611 1.53683 6.58325 1.53683C5.66249 1.53683 3.70937 1.45312 2.90022 1.78795C2.34218 2.01116 1.92365 2.42969 1.70044 2.95982C1.36562 3.79687 1.44932 5.75 1.44932 6.64286C1.44932 7.56362 1.36562 9.51674 1.70044 10.3259C1.92365 10.8839 2.34218 11.3025 2.90022 11.5257C3.70937 11.8605 5.66249 11.7768 6.58325 11.7768C7.47611 11.7768 9.42923 11.8605 10.2663 11.5257C10.7964 11.3025 11.2429 10.8839 11.4382 10.3259Z" fill="#EFF2F3"/>
</svg>
